<svg width="28" height="24" viewBox="0 0 28 24" fill="none" xmlns="http://www.w3.org/2000/svg">
<path d="M16.4995 22.5097C15.8848 22.8946 15.3713 23.193 15.0097 23.3961C14.8182 23.5037 14.6252 23.6084 14.4309 23.711L14.4297 23.7116L14.4283 23.7124C14.1594 23.8504 13.8406 23.8504 13.5717 23.7124C13.376 23.6105 13.1826 23.5042 12.9903 23.3961C12.6287 23.193 12.1153 22.8946 11.5005 22.5097C10.273 21.7411 8.63187 20.6216 6.98602 19.2204C3.75176 16.4669 0.25 12.4148 0.25 7.64189C0.25 3.315 3.78629 0.125 7.42061 0.125C10.2873 0.125 12.601 1.65777 14 4.00603C15.399 1.65777 17.7127 0.125 20.5794 0.125C24.2137 0.125 27.75 3.315 27.75 7.64189C27.75 12.4148 24.2482 16.4669 21.014 19.2204C19.3681 20.6216 17.727 21.7411 16.4995 22.5097Z" fill="#FF5831"/>
</svg>
